<svg xmlns="http://www.w3.org/2000/svg" xmlns:xlink="http://www.w3.org/1999/xlink" xmlns:inkscape="http://www.inkscape.org/namespaces/inkscape" version="1.1" width="841.89" height="595.28" viewBox="0 0 841.89 595.28">
<defs>
<clipPath id="clip_0">
<path transform="matrix(1,0,0,-1,0,595.28)" d="M0 595.28H841.89V0H0Z"/>
</clipPath>
</defs>
<g inkscape:groupmode="layer" inkscape:label="Layer 1">
<g clip-path="url(#clip_0)">
<path transform="matrix(1,0,0,-1,427.2939,163.81223)" d="M0 0C.187-4.503 .435-8.693 .534-12.864 .76-20.369 1.735-27.743 2.948-35.097 4.587-44.897 7.289-54.341 11.129-63.378 13.769-69.632 16.758-75.729 19.547-81.915 23.362-90.276 26.451-98.932 27.777-108.194 28.928-115.868 28.215-123.397 25.226-130.515 21.536-139.32 15.419-145.377 6.977-148.629-2.164-152.131-11.17-151.594-19.976-147.453-25.941-144.627-30.682-140.12-34.409-134.304-42.39-121.765-43.916-107.869-41.339-93.247-39.875-84.923-37.286-76.949-33.859-69.382-29.144-59.063-24.178-48.894-19.225-38.706-16.335-32.708-13.271-26.823-10.319-20.863-7.542-15.378-4.753-9.837-2.014-4.328-1.326-2.996-.738-1.62 0 0" fill="#f06c28" fill-rule="evenodd"/>
<path transform="matrix(1,0,0,-1,502.0381,163.81223)" d="M0 0C.2-4.503 .438-8.693 .563-12.864 .788-20.369 1.751-27.743 2.965-35.097 4.578-44.897 7.305-54.341 11.146-63.378 13.771-69.632 16.761-75.729 19.575-81.915 23.378-90.276 26.442-98.932 27.793-108.194 28.932-115.868 28.218-123.397 25.254-130.515 21.552-139.32 15.46-145.377 6.992-148.629-2.151-152.131-11.157-151.594-19.937-147.453-25.929-144.627-30.669-140.12-34.396-134.304-42.401-121.765-43.865-107.869-41.326-93.247-39.862-84.923-37.261-76.949-33.847-69.382-29.155-59.063-24.152-48.894-19.225-38.706-16.31-32.708-13.258-26.823-10.294-20.863-7.517-15.378-4.74-9.837-2.001-4.328-1.301-2.996-.737-1.62 0 0" fill="#223f82" fill-rule="evenodd"/>
<path transform="matrix(1,0,0,-1,352.5337,163.81223)" d="M0 0C.188-4.503 .425-8.693 .563-12.864 .75-20.369 1.726-27.743 2.939-35.097 4.603-44.897 7.28-54.341 11.132-63.378 13.784-69.632 16.761-75.729 19.55-81.915 23.377-90.276 26.455-98.932 27.78-108.194 28.931-115.868 28.206-123.397 25.229-130.515 21.551-139.32 15.448-145.377 6.967-148.629-2.164-152.131-11.157-151.594-19.938-147.453-25.941-144.627-30.695-140.12-34.372-134.304-42.402-121.765-43.89-107.869-41.339-93.247-39.9-84.923-37.286-76.949-33.846-69.382-29.156-59.063-24.166-48.894-19.237-38.706-16.323-32.708-13.271-26.823-10.282-20.863-7.517-15.378-4.753-9.837-2.001-4.328-1.326-2.996-.75-1.62 0 0" fill="#b6952f" fill-rule="evenodd"/>
<path transform="matrix(1,0,0,-1,316.4609,272.21263)" d="M0 0C0 0 7.93-23.965 27.342-23.965 27.342-23.965 4.103-39.115 0 0" fill="#ffffff"/>
<path transform="matrix(1,0,0,-1,392.8848,272.21263)" d="M0 0C0 0 7.917-23.965 27.33-23.965 27.33-23.965 4.09-39.115 0 0" fill="#ffffff"/>
<path transform="matrix(1,0,0,-1,468.8672,272.21263)" d="M0 0C0 0 7.955-23.965 27.38-23.965 27.38-23.965 4.103-39.115 0 0" fill="#ffffff"/>
<path transform="matrix(1,0,0,-1,84.7759,354.41773)" d="M0 0C0 4.152-1.363 6.203-4.002 6.203-6.667 6.203-8.005 4.152-8.005 0-8.005-4.128-6.667-6.18-4.002-6.18-1.363-6.18 0-4.128 0 0M3.84 0C3.84-2.802 3.265-5.028 2.164-6.768 .813-8.855-1.226-9.932-4.002-9.932-6.792-9.932-8.868-8.855-10.219-6.768-11.319-5.028-11.883-2.802-11.883 0-11.883 2.539-11.482 4.565-10.707 6.016H-12.896C-15.097 6.016-16.585 5.703-17.361 5.09-18.212 4.415-18.662 3.039-18.662 .988V-17.499L-22.539-18.8V.988C-22.539 4.277-21.714 6.642-20.138 8.067-18.75 9.268-16.585 9.906-13.646 9.906H-4.002C-1.226 9.906 .813 8.83 2.164 6.729 3.265 5.003 3.84 2.764 3.84 0" fill="#223f82"/>
<path transform="matrix(1,0,0,-1,96.9839,364.66184)" d="M0 0H-4.391V7.217L0 11.095Z" fill="#223f82"/>
<path transform="matrix(1,0,0,-1,126.3774,355.3933)" d="M0 0H-4.152-8.306C-12.32 0-14.81-3.115-14.81-7.53-14.81-11.62-12.32-14.034-8.306-14.034-7.017-14.034-6.054-13.896-5.354-13.672-4.403-13.358-3.265-12.608-1.951-11.433L-1.926-16.048C-3.74-17.199-5.866-17.787-8.306-17.787-11.357-17.787-13.834-16.836-15.835-14.923-17.799-13.046-18.787-10.595-18.787-7.53-18.787-2.89-16.61 .888-12.983 2.677V4.152C-12.983 6.153-12.42 7.842-11.295 9.218-10.156 10.594-8.53 11.319-6.441 11.319-4.528 11.319-2.89 10.519-1.589 8.868L-4.152 6.104C-4.815 7.129-5.729 7.667-6.817 7.667-8.418 7.667-9.231 6.642-9.231 4.628V3.702H-1.989Z" fill="#223f82"/>
<path transform="matrix(1,0,0,-1,134.7578,364.66184)" d="M0 0H-4.403V7.217L0 11.095Z" fill="#223f82"/>
<path transform="matrix(1,0,0,-1,167.9165,354.41773)" d="M0 0C0 4.152-1.363 6.203-4.015 6.203-6.667 6.203-7.993 4.152-7.993 0-7.993-4.128-6.667-6.18-4.015-6.18-1.363-6.18 0-4.128 0 0M3.84 0C3.84-2.802 3.265-5.028 2.164-6.768 .813-8.855-1.238-9.932-4.015-9.932-6.792-9.932-8.855-8.855-10.207-6.768-11.32-5.028-11.883-2.802-11.883 0-11.883 2.539-11.482 4.565-10.694 6.016H-12.908C-15.122 6.016-16.573 5.703-17.361 5.09-18.199 4.415-18.662 3.039-18.662 .988V-17.499L-22.527-18.8V.988C-22.527 4.277-21.727 6.642-20.125 8.067-18.75 9.268-16.573 9.906-13.634 9.906H-4.015C-1.238 9.906 .813 8.83 2.164 6.729 3.265 5.003 3.84 2.764 3.84 0" fill="#223f82"/>
<path transform="matrix(1,0,0,-1,180.1489,364.66184)" d="M0 0H-4.415V7.217L0 11.095Z" fill="#223f82"/>
<path transform="matrix(1,0,0,-1,219.3242,338.23313)" d="M0 0C0-1.263-.988-2.326-2.126-2.326-3.315-2.326-4.215-1.263-4.215 0-4.215 1.289-3.315 2.352-2.126 2.352-.988 2.352 0 1.289 0 0M2.79 5.153C2.79 3.953 1.801 2.877 .663 2.877-.475 2.877-1.476 3.953-1.476 5.153-1.476 6.404-.475 7.48 .663 7.48 1.801 7.48 2.79 6.404 2.79 5.153M5.466 0C5.466-1.263 4.49-2.326 3.339-2.326 2.214-2.326 1.263-1.263 1.263 0 1.263 1.289 2.214 2.352 3.339 2.352 4.49 2.352 5.466 1.289 5.466 0M14.834-18.712C14.834-23.314 11.833-26.379 7.142-26.379H-9.031C-9.356-32.083-12.983-34.947-19.925-34.947-24.829-34.947-28.143-33.283-29.881-29.981-31.145-27.63-31.72-23.915-31.633-18.812L-27.818-17.561V-21.438C-27.818-28.393-25.591-31.106-19.888-31.106-15.185-31.106-12.858-29.093-12.858-25.053V-11.77L-8.981-10.481V-22.727H-1.113V-9.456L2.79-8.205V-22.639H6.942C9.581-22.639 10.944-21.15 10.944-18.273V-7.479L14.834-6.204Z" fill="#223f82"/>
<path transform="matrix(1,0,0,-1,263.8525,350.75364)" d="M0 0C0-1.263-.901-2.276-2.089-2.276-3.227-2.276-4.203-1.263-4.203 0-4.203 1.238-3.227 2.314-2.089 2.314-.901 2.314 0 1.238 0 0M9.506 2.039V-12.958C9.506-19.249 5.879-22.427-1.438-22.427-6.341-22.427-9.631-20.763-11.382-17.461-12.67-15.109-13.233-11.395-13.146-6.278L-9.306-5.04V-8.918C-9.306-15.872-7.092-18.586-1.375-18.586 3.302-18.586 5.641-16.572 5.641-12.52V.751Z" fill="#223f82"/>
<path transform="matrix(1,0,0,-1,289.644,364.61204)" d="M0 0H-4.34C-7.805 0-9.744 2.313-9.744 5.754V27.393L-5.854 28.743V5.879C-5.854 4.453-5.203 3.74-3.853 3.74H0Z" fill="#223f82"/>
<path transform="matrix(1,0,0,-1,0,595.28)" d="M296.148 230.668H288.59303V234.408H296.148Z" fill="#223f82"/>
<path transform="matrix(1,0,0,-1,0,595.28)" d="M297.537 230.668H289.982V234.408H297.537Z" fill="#223f82"/>
<path transform="matrix(1,0,0,-1,314.8101,358.24586)" d="M0 0C0 3.965-1.438 5.929-4.278 5.929-7.192 5.929-8.605 3.965-8.605 0-8.605-3.952-7.192-5.929-4.278-5.929-1.438-5.929 0-3.952 0 0M9.756-6.354H9.219C6.805-6.354 4.94-5.44 3.652-3.564 2.651-7.305-.375-9.48-4.278-9.48-8.005-9.48-10.994-7.517-12.083-4.14-13.271-5.628-14.947-6.354-17.136-6.354H-18.462V-2.626H-17.398C-14.497-2.626-12.858-1.2-12.545 1.651-11.845 6.867-9.131 9.443-4.278 9.443-1.639 9.443 .325 8.781 1.639 7.442 2.802 6.242 3.564 4.266 3.902 1.651 4.353-1.25 6.041-2.714 8.943-2.714L9.756-2.626Z" fill="#223f82"/>
<path transform="matrix(1,0,0,-1,345.5669,364.61204)" d="M0 0H-21.801V3.74H-17.273V11.357C-17.273 13.809-16.535 15.897-15.122 17.549-13.633 19.237-11.595 20.088-9.03 20.088-6.804 20.088-4.891 19.2-3.277 17.448L-6.166 14.609C-7.129 15.897-8.255 16.522-9.456 16.522-11.907 16.522-13.396 14.609-13.396 12.07V3.74H-2.889Z" fill="#223f82"/>
<path transform="matrix(1,0,0,-1,374.6235,362.08573)" d="M0 0C0-1.238-1.001-2.301-2.139-2.301-3.29-2.301-4.216-1.238-4.216 0-4.216 1.214-3.29 2.289-2.139 2.289-1.001 2.289 0 1.214 0 0M14.922-2.514H13.246C7.792-2.514 4.415 .638 3.214 6.917H-2.339C-6.254 6.917-8.868 3.915-8.868-.388-8.868-4.54-6.142-7.38-2.339-7.38 .062-7.38 2.201-6.529 3.99-4.878V-9.381C2.201-10.507 .062-11.095-2.339-11.095-5.229-11.095-7.743-10.094-9.769-8.093-11.82-6.091-12.833-3.552-12.833-.388-12.833 2.902-11.858 5.592-9.894 7.58-7.893 9.594-5.404 10.619-2.339 10.619H2.151C.925 13.696-.951 15.247-3.44 15.247-5.479 15.247-7.567 14.172-9.644 12.045L-11.971 14.396C-9.094 17.424-6.217 18.912-3.44 18.85 .125 18.762 2.676 17.224 4.202 14.172 5.228 11.332 6.191 8.468 7.204 5.654 8.567 2.702 10.757 1.214 13.821 1.214H14.922Z" fill="#223f82"/>
<path transform="matrix(1,0,0,-1,0,595.28)" d="M396.112 230.668H388.557V234.408H396.112Z" fill="#223f82"/>
<path transform="matrix(1,0,0,-1,0,595.28)" d="M397.488 230.668H389.946V234.408H397.488Z" fill="#223f82"/>
<path transform="matrix(1,0,0,-1,404.605,370.8532)" d="M0 0C0-1.251-.963-2.327-2.089-2.327-3.29-2.327-4.19-1.251-4.19 0-4.19 1.263-3.29 2.276-2.089 2.276-.963 2.276 0 1.263 0 0M5.503 0C5.503-1.251 4.503-2.327 3.377-2.327 2.214-2.327 1.313-1.251 1.313 0 1.313 1.263 2.214 2.276 3.377 2.276 4.503 2.276 5.503 1.263 5.503 0M8.768 6.241H6.304C3.902 6.241 2.014 7.042 .638 8.605-.763 7.042-2.664 6.241-5.166 6.241H-8.105V9.894H-5.416C-2.664 9.894-1.326 11.407-1.326 14.434V25.091L2.514 26.329V14.309C2.514 11.357 3.865 9.894 6.554 9.894H8.768Z" fill="#223f82"/>
<path transform="matrix(1,0,0,-1,429.8105,364.61204)" d="M0 0H-2.701C-5.065 0-6.942 .801-8.368 2.401-9.72 .801-11.634 0-14.123 0H-17.451V3.74H-14.373C-11.684 3.74-10.332 5.253-10.332 8.293V27.393L-6.455 28.743V8.067C-6.455 5.166-5.104 3.74-2.451 3.74H0Z" fill="#223f82"/>
<path transform="matrix(1,0,0,-1,442.4404,338.23313)" d="M0 0C0-1.263-.926-2.326-2.076-2.326-3.252-2.326-4.24-1.263-4.24 0-4.24 1.238-3.252 2.265-2.076 2.265-.926 2.265 0 1.238 0 0M8.056-26.379H-13.668V-22.727H4.104V-21.126C4.104-17.724 3.815-15.284 3.228-13.783 2.34-11.282 .538-10.031-2.102-10.031-4.353-10.031-6.441-11.182-8.367-13.458L-11.129-10.656C-8.405-7.755-5.428-6.278-2.102-6.278 2.002-6.278 4.854-7.942 6.467-11.182 7.518-13.458 8.056-16.811 8.056-21.126Z" fill="#223f82"/>
<path transform="matrix(1,0,0,-1,476.667,354.41773)" d="M0 0C0 4.377-1.526 6.554-4.516 6.554-7.455 6.554-8.905 4.377-8.905 0-8.905-4.403-7.455-6.643-4.516-6.643-1.526-6.643 0-4.403 0 0M3.802 0C3.802-2.89 3.215-5.204 2.063-6.942 .638-9.119-1.563-10.194-4.516-10.194-7.455-10.194-9.594-9.119-11.032-6.942-12.221-5.204-12.783-2.89-12.783 0-12.783 2.864-12.221 5.165-11.032 6.916-9.594 9.056-7.455 10.118-4.516 10.118-1.563 10.118 .638 9.056 2.063 6.916 3.215 5.165 3.802 2.864 3.802 0" fill="#223f82"/>
<path transform="matrix(1,0,0,-1,495.0459,364.61204)" d="M0 0H-4.315C-7.805 0-9.719 2.313-9.719 5.754V27.393L-5.829 28.743V5.879C-5.829 4.453-5.19 3.74-3.84 3.74H0Z" fill="#223f82"/>
<path transform="matrix(1,0,0,-1,0,595.28)" d="M501.575 230.668H494.02003V234.408H501.575Z" fill="#223f82"/>
<path transform="matrix(1,0,0,-1,0,595.28)" d="M502.964 230.668H495.408V234.408H502.964Z" fill="#223f82"/>
<path transform="matrix(1,0,0,-1,510.1055,370.8532)" d="M0 0C0-1.251-.988-2.327-2.139-2.327-3.314-2.327-4.202-1.251-4.202 0-4.202 1.263-3.314 2.276-2.139 2.276-.988 2.276 0 1.263 0 0M5.466 0C5.466-1.251 4.49-2.327 3.34-2.327 2.201-2.327 1.264-1.251 1.264 0 1.264 1.263 2.201 2.276 3.34 2.276 4.49 2.276 5.466 1.263 5.466 0M8.743 6.241H6.279C3.891 6.241 2.014 7.042 .601 8.605-.775 7.042-2.701 6.241-5.19 6.241H-8.143V9.894H-5.416C-2.701 9.894-1.338 11.407-1.338 14.434V25.091L2.489 26.329V14.309C2.489 11.357 3.853 9.894 6.529 9.894H8.743Z" fill="#223f82"/>
<path transform="matrix(1,0,0,-1,535.3721,355.0681)" d="M0 0C0 3.952-1.364 5.966-4.016 5.966-6.704 5.966-8.043 3.952-8.043 0-8.043-3.966-6.704-5.93-4.016-5.93-1.364-5.93 0-3.966 0 0M3.864 0C3.864-2.689 3.289-4.866 2.188-6.518 .851-8.519-1.226-9.544-4.016-9.544-6.367-9.544-8.269-8.743-9.694-7.18-10.995-8.743-12.996-9.544-15.698-9.544H-17.524V-5.892H-15.923C-13.259-5.892-11.921-4.428-11.921-1.438V0C-11.921 2.701-11.37 4.891-10.244 6.592-8.906 8.593-6.829 9.568-4.016 9.568-1.226 9.568 .851 8.593 2.188 6.592 3.289 4.891 3.864 2.701 3.864 0" fill="#223f82"/>
<path transform="matrix(1,0,0,-1,564.1152,338.23313)" d="M0 0C0-1.263-.963-2.326-2.164-2.326-3.303-2.326-4.29-1.263-4.29 0-4.29 1.238-3.303 2.265-2.164 2.265-.963 2.265 0 1.238 0 0M3.564-9.718H-.613C-2.189-9.718-3.353-10.306-3.965-11.444-4.479-12.396-4.778-13.996-4.778-16.185-4.778-18.361-4.479-19.962-3.965-20.95-3.353-22.151-2.189-22.727-.613-22.727 .976-22.727 2.139-22.151 2.739-20.95 3.265-19.962 3.564-18.361 3.564-16.185ZM5.479 0C5.479-1.263 4.49-2.326 3.352-2.326 2.201-2.326 1.275-1.263 1.275 0 1.275 1.238 2.201 2.265 3.352 2.265 4.49 2.265 5.479 1.238 5.479 0M13.896-26.379H11.232C8.043-26.379 6.004-25.354 5.141-23.252 4.203-25.354 2.201-26.379-.863-26.379-6.041-26.379-8.656-23.002-8.656-16.185-8.656-9.581-6.041-6.278-.863-6.278H7.43V-18.187C7.43-21.213 8.793-22.727 11.432-22.727H13.896Z" fill="#223f82"/>
<path transform="matrix(1,0,0,-1,0,595.28)" d="M584.553 230.668H577.011V234.408H584.553Z" fill="#223f82"/>
<path transform="matrix(1,0,0,-1,0,595.28)" d="M585.941 230.668H578.386V234.408H585.941Z" fill="#223f82"/>
<path transform="matrix(1,0,0,-1,593.084,370.8532)" d="M0 0C0-1.251-.988-2.327-2.14-2.327-3.314-2.327-4.216-1.251-4.216 0-4.216 1.263-3.314 2.276-2.14 2.276-.988 2.276 0 1.263 0 0M5.466 0C5.466-1.251 4.49-2.327 3.352-2.327 2.188-2.327 1.263-1.251 1.263 0 1.263 1.263 2.188 2.276 3.352 2.276 4.49 2.276 5.466 1.263 5.466 0M8.73 6.241H6.278C3.877 6.241 1.988 7.042 .612 8.605-.775 7.042-2.702 6.241-5.191 6.241H-8.131V9.894H-5.429C-2.702 9.894-1.352 11.407-1.352 14.434V25.091L2.501 26.329V14.309C2.501 11.357 3.827 9.894 6.516 9.894H8.73Z" fill="#223f82"/>
<path transform="matrix(1,0,0,-1,618.2617,364.61204)" d="M0 0H-2.688C-5.078 0-6.941 .801-8.38 2.401-9.73 .801-11.632 0-14.134 0H-17.436V3.74H-14.384C-11.67 3.74-10.344 5.253-10.344 8.293V27.393L-6.453 28.743V8.067C-6.453 5.166-5.115 3.74-2.464 3.74H0Z" fill="#223f82"/>
<path transform="matrix(1,0,0,-1,644.5918,364.61204)" d="M0 0H-27.368V3.652H-9.031V5.253C-9.031 8.643-9.307 11.095-9.895 12.596-10.808 15.097-12.596 16.348-15.285 16.348-17.524 16.348-19.562 15.197-21.489 12.921L-24.266 15.723C-21.526 18.624-18.55 20.088-15.285 20.088-11.157 20.088-8.306 18.437-6.705 15.197-5.604 12.921-5.078 9.568-5.078 5.253V3.74H0Z" fill="#223f82"/>
<path transform="matrix(1,0,0,-1,649.1689,338.23313)" d="M0 0C0-1.263-.937-2.326-2.076-2.326-3.239-2.326-4.202-1.263-4.202 0-4.202 1.238-3.239 2.265-2.076 2.265-.937 2.265 0 1.238 0 0M5.216-18.499C5.216-20.763 4.541-22.677 3.14-24.152 1.764-25.628-.112-26.379-2.464-26.379H-5.604V-22.727H-2.664C.038-22.727 1.389-21.213 1.389-18.187V-7.542L5.216-6.278ZM5.517 0C5.517-1.263 4.578-2.326 3.378-2.326 2.239-2.326 1.251-1.263 1.251 0 1.251 1.238 2.239 2.265 3.378 2.265 4.578 2.265 5.517 1.238 5.517 0" fill="#223f82"/>
<path transform="matrix(1,0,0,-1,679.2764,338.23313)" d="M0 0C0-1.263-.976-2.326-2.177-2.326-3.303-2.326-4.278-1.263-4.278 0-4.278 1.238-3.303 2.265-2.177 2.265-.976 2.265 0 1.238 0 0M3.564-9.718H-.601C-2.202-9.718-3.353-10.306-3.953-11.444-4.479-12.396-4.778-13.996-4.778-16.185-4.778-18.361-4.479-19.962-3.953-20.95-3.353-22.151-2.202-22.727-.601-22.727 .987-22.727 2.139-22.151 2.739-20.95 3.289-19.962 3.564-18.361 3.564-16.185ZM5.478 0C5.478-1.263 4.49-2.326 3.352-2.326 2.214-2.326 1.288-1.263 1.288 0 1.288 1.238 2.214 2.265 3.352 2.265 4.49 2.265 5.478 1.238 5.478 0M13.896-26.379H11.244C8.042-26.379 6.003-25.354 5.153-23.252 4.215-25.354 2.214-26.379-.851-26.379-6.029-26.379-8.655-23.002-8.655-16.185-8.655-9.581-6.029-6.278-.851-6.278H7.43V-18.187C7.43-21.213 8.768-22.727 11.419-22.727H13.896Z" fill="#223f82"/>
<path transform="matrix(1,0,0,-1,715.3115,364.61204)" d="M0 0H-23.14V3.652H-3.978C-3.928 5.929-4.003 7.567-4.128 8.518-4.415 10.331-5.065 11.808-6.079 12.833-7.492 14.247-9.306 14.972-11.569 14.972-14.484 14.972-16.86 13.809-18.699 11.482L-21.364 14.209-8.655 28.644H-3.59L-12.421 18.524C-11.795 18.624-11.232 18.675-10.632 18.675-7.805 18.675-5.429 17.724-3.502 15.86-1.601 14.034-.45 11.582-.125 8.518-.025 7.88 0 5.041 0 0" fill="#223f82"/>
<path transform="matrix(1,0,0,-1,739.9902,364.61204)" d="M0 0H-5.816C-6.33-5.166-9.682-8.568-14.96-8.568-16.699-8.568-18.137-8.155-19.312-7.367L-21.139-3.177C-19.312-4.266-17.287-4.854-14.96-4.854-11.633-4.854-9.632-2.526-9.632 1.2V18.85L-5.742 20.088V3.74H0Z" fill="#223f82"/>
<path transform="matrix(1,0,0,-1,0,595.28)" d="M746.544 230.668H738.989V234.408H746.544Z" fill="#223f82"/>
<path transform="matrix(1,0,0,-1,0,595.28)" d="M747.933 230.668H740.37698V234.408H747.933Z" fill="#223f82"/>
<path transform="matrix(1,0,0,-1,764.8184,338.23313)" d="M0 0C0-1.263-.963-2.326-2.127-2.326-3.277-2.326-4.19-1.263-4.19 0-4.19 1.289-3.277 2.352-2.127 2.352-.963 2.352 0 1.289 0 0M2.789 5.153C2.789 3.953 1.813 2.877 .662 2.877-.476 2.877-1.477 3.953-1.477 5.153-1.477 6.404-.476 7.48 .662 7.48 1.813 7.48 2.789 6.404 2.789 5.153M5.466 0C5.466-1.263 4.502-2.326 3.364-2.326 2.227-2.326 1.275-1.263 1.275 0 1.275 1.289 2.227 2.352 3.364 2.352 4.502 2.352 5.466 1.289 5.466 0M14.834-18.712C14.834-23.314 11.845-26.379 7.154-26.379H-17.799V-22.639H-12.983V-11.369L-9.106-10.169V-22.727H-1.089V-9.456L2.789-8.205V-22.639H6.954C9.605-22.639 10.957-21.15 10.957-18.273V-7.479L14.834-6.204Z" fill="#223f82"/>
<path transform="matrix(1,0,0,-1,60.8857,404.58766)" d="M0 0C1.751-3.478 3.602-7.079 5.553-10.757 5.804-10.27 6.179-9.544 6.654-8.631 7.129-7.718 7.667-6.642 8.292-5.453 8.931-4.24 9.594-2.939 10.344-1.551 11.031-.138 11.77 1.264 12.495 2.702 13.246 4.128 13.983 5.554 14.709 6.93 15.46 8.306 16.122 9.606 16.761 10.795H17.248C17.523 8.293 17.786 5.879 18.011 3.553 18.236 1.213 18.499-1.088 18.762-3.352 19.012-5.604 19.262-7.83 19.512-10.044 19.75-12.232 20.025-14.434 20.338-16.586 20.025-16.535 19.737-16.511 19.449-16.511H18.574 17.674C17.386-16.511 17.098-16.535 16.785-16.586 16.51-13.121 16.247-9.744 15.96-6.491 15.685-3.239 15.359 .088 14.935 3.49H14.859C13.133 .2 11.444-3.077 9.756-6.329 8.093-9.556 6.504-12.958 4.978-16.511H4.652C3.14-13.233 1.563-9.932-.088-6.629-1.727-3.34-3.39 .037-5.054 3.49H-5.129C-5.291 1.863-5.479 .112-5.717-1.776-5.929-3.665-6.117-5.541-6.292-7.367-6.479-9.206-6.617-10.944-6.755-12.596-6.867-14.209-6.942-15.535-6.942-16.586-7.33-16.535-7.78-16.511-8.256-16.511-8.73-16.511-9.169-16.535-9.581-16.586-9.256-14.472-8.919-12.258-8.556-9.894-8.193-7.542-7.868-5.19-7.53-2.802-7.218-.437-6.917 1.901-6.63 4.215-6.342 6.517-6.117 8.718-5.917 10.795H-5.278C-3.553 7.092-1.776 3.502 0 0" fill="#223f82"/>
<path transform="matrix(1,0,0,-1,89.3906,418.48414)" d="M0 0C-.437 1.139-.913 2.326-1.413 3.564-1.926 4.791-2.438 6.054-2.964 7.354-3.489 8.631-3.989 9.831-4.439 10.982-4.928 12.12-5.341 13.108-5.666 13.984-6.041 14.848-6.304 15.485-6.479 15.897-6.153 15.848-5.841 15.798-5.553 15.748-5.278 15.723-5.016 15.697-4.74 15.697-4.465 15.697-4.189 15.723-3.914 15.748-3.627 15.798-3.339 15.848-3.001 15.897-2.226 13.384-1.363 10.907-.412 8.443 .551 6.004 1.563 3.478 2.627 .876 3.678 3.152 4.691 5.616 5.654 8.23 6.604 10.832 7.48 13.384 8.243 15.897 8.731 15.76 9.156 15.697 9.481 15.697 9.819 15.697 10.232 15.76 10.732 15.897 10.545 15.522 10.27 14.91 9.882 14.047 9.481 13.158 9.031 12.12 8.48 10.907 7.943 9.693 7.343 8.355 6.705 6.867 6.079 5.391 5.416 3.891 4.754 2.339 4.078 .788 3.415-.763 2.79-2.276 2.114-3.803 1.501-5.253 .964-6.629 .4-7.992-.087-9.23-.513-10.344-.913-11.444-1.213-12.333-1.413-12.983-1.926-12.858-2.339-12.771-2.701-12.771-3.039-12.771-3.477-12.858-3.989-12.983-1.988-9.568-.312-6.153 1.076-2.727 .801-2.026 .451-1.113 0 0" fill="#223f82"/>
<path transform="matrix(1,0,0,-1,110.1289,411.81715)" d="M0 0C-.537-.112-1.113-.226-1.713-.338-2.276-.463-2.852-.613-3.401-.788-3.965-.963-4.452-1.226-4.902-1.526-5.341-1.839-5.69-2.239-5.953-2.702-6.229-3.177-6.354-3.777-6.354-4.516-6.354-5.729-6.004-6.667-5.315-7.279-4.665-7.905-3.915-8.218-3.089-8.218-2.126-8.218-1.275-7.942-.475-7.405 .301-6.854 .913-6.217 1.339-5.479L1.489 .388C1.063 .237 .588 .1 0 0M-4.69 9.155C-3.739 9.469-2.751 9.631-1.751 9.631-.851 9.631 0 9.469 .738 9.206 1.501 8.931 2.151 8.543 2.702 8.043 3.228 7.53 3.628 6.904 3.94 6.179 4.253 5.479 4.403 4.703 4.403 3.827 4.403 2.339 4.354 .863 4.328-.626 4.278-2.089 4.253-3.652 4.253-5.304 4.253-5.604 4.253-5.941 4.266-6.292 4.278-6.642 4.328-6.942 4.44-7.229 4.528-7.505 4.69-7.742 4.866-7.905 5.054-8.093 5.354-8.181 5.717-8.181 5.842-8.181 5.979-8.168 6.117-8.168 6.267-8.143 6.392-8.105 6.517-8.03V-8.894C6.242-9.019 5.892-9.131 5.479-9.206 5.054-9.281 4.604-9.318 4.091-9.318 3.29-9.318 2.64-9.105 2.227-8.668 1.802-8.243 1.526-7.692 1.464-7.017 .538-7.942-.337-8.644-1.213-9.081-2.089-9.531-3.164-9.744-4.439-9.744-5.065-9.744-5.69-9.669-6.291-9.469-6.879-9.294-7.417-8.993-7.88-8.581-8.343-8.168-8.73-7.655-9.018-7.067-9.293-6.491-9.456-5.804-9.456-5.054-9.456-3.489-8.955-2.276-8.029-1.413-7.092-.562-5.804 .013-4.14 .3-2.764 .538-1.738 .738-.963 .913-.2 1.088 .363 1.251 .726 1.451 1.076 1.613 1.313 1.826 1.389 2.076 1.464 2.339 1.489 2.664 1.489 3.026 1.489 3.702 1.401 4.315 1.276 4.928 1.139 5.528 .876 6.041 .538 6.491 .238 6.93-.2 7.292-.725 7.555-1.275 7.843-1.913 7.979-2.664 7.979-3.664 7.979-4.59 7.742-5.466 7.255-6.316 6.805-6.979 6.142-7.392 5.315H-7.817V7.354C-6.691 8.243-5.641 8.843-4.69 9.155" fill="#223f82"/>
<path transform="matrix(1,0,0,-1,120.1611,400.05934)" d="M0 0C-.013 1.062-.025 2.089-.062 3.102-.075 4.127-.113 5.091-.15 6.016-.188 6.954-.251 7.742-.275 8.393 .425 8.268 .987 8.192 1.413 8.192 1.851 8.192 2.414 8.268 3.102 8.393 3.064 7.742 3.026 6.954 2.977 6.041 2.951 5.128 2.901 4.165 2.889 3.164 2.876 2.163 2.852 1.138 2.839 .125 2.802-.889 2.802-1.813 2.802-2.689V-5.654H2.889C3.59-4.541 4.439-3.665 5.416-3.064 6.403-2.439 7.567-2.14 8.955-2.14 9.655-2.14 10.369-2.239 11.069-2.452 11.795-2.665 12.433-3.027 13.021-3.527 13.621-4.04 14.084-4.729 14.434-5.604 14.797-6.479 14.997-7.593 14.997-8.943 14.997-10.069 14.972-11.22 14.909-12.408 14.871-13.597 14.847-14.86 14.847-16.173V-18.737C14.847-19.15 14.847-19.562 14.871-19.963 14.871-20.363 14.896-20.751 14.909-21.114 14.409-21.063 13.884-21.039 13.308-21.039 12.771-21.039 12.27-21.063 11.757-21.114 11.795-19.763 11.87-18.362 11.92-16.937 11.97-15.485 11.995-14.021 11.995-12.509V-10.132C11.995-8.168 11.645-6.68 10.919-5.679 10.193-4.666 9.181-4.178 7.904-4.178 6.141-4.178 4.853-4.729 4.04-5.866 3.227-6.992 2.802-8.556 2.802-10.582 2.802-11.333 2.802-12.171 2.839-13.134 2.852-14.109 2.876-15.072 2.889-16.048 2.901-17.023 2.951-17.975 2.977-18.888 3.026-19.801 3.064-20.551 3.102-21.114 2.539-21.063 1.963-21.039 1.413-21.039 .862-21.039 .3-21.063-.275-21.114-.251-20.514-.188-19.763-.15-18.85-.113-17.937-.075-16.961-.062-15.948-.025-14.935-.013-13.909 0-12.858 .012-11.808 .012-10.845 .012-9.981V-2.89C.012-2.002 .012-1.026 0 0" fill="#223f82"/>
<path transform="matrix(1,0,0,-1,170.4678,397.65794)" d="M0 0C-.562 .463-1.176 .888-1.889 1.226-2.564 1.588-3.34 1.863-4.19 2.089-5.016 2.313-5.929 2.438-6.867 2.438-8.431 2.438-9.881 2.176-11.232 1.676-12.583 1.188-13.746 .425-14.76-.613-15.723-1.651-16.498-2.939-17.086-4.528-17.637-6.092-17.911-7.968-17.911-10.145-17.911-12.045-17.687-13.759-17.174-15.298-16.673-16.849-15.936-18.149-14.96-19.2-13.984-20.251-12.82-21.076-11.433-21.639-10.019-22.215-8.443-22.502-6.691-22.502-6.154-22.502-5.604-22.489-5.041-22.414-4.428-22.364-3.89-22.289-3.353-22.189-2.814-22.089-2.289-21.951-1.826-21.789-1.363-21.639-.976-21.451-.65-21.251-.625-20.463-.613-19.676-.588-18.899-.575-18.124-.575-17.324-.575-16.511-.575-15.598-.588-14.685-.638-13.771-.676-12.858-.713-11.982-.775-11.17-.15-11.282 .463-11.357 1.038-11.357 1.326-11.357 1.601-11.345 1.863-11.308 2.151-11.282 2.414-11.232 2.677-11.17 2.614-11.745 2.576-12.708 2.552-13.984 2.526-15.285 2.526-16.986 2.526-19.1V-20.676C2.539-21.201 2.552-21.739 2.552-22.265 2.014-22.489 1.363-22.689 .575-22.915-.213-23.127-1.075-23.315-1.951-23.465-2.852-23.603-3.74-23.74-4.653-23.841-5.528-23.966-6.354-24.028-7.055-24.028-9.281-24.028-11.319-23.753-13.108-23.189-14.909-22.627-16.448-21.764-17.699-20.588-18.962-19.4-19.925-17.949-20.588-16.211-21.276-14.459-21.613-12.434-21.613-10.145-21.613-7.905-21.276-5.941-20.551-4.203-19.875-2.477-18.875-1.001-17.586 .187-16.323 1.4-14.76 2.313-12.934 2.927-11.107 3.552-9.094 3.865-6.867 3.865-5.591 3.865-4.453 3.79-3.465 3.652-2.477 3.515-1.589 3.327-.838 3.102-.05 2.852 .613 2.602 1.188 2.339 1.776 2.089 2.289 1.826 2.739 1.601 2.539 1.238 2.377 .775 2.201 .187 2.014-.375 1.926-.926 1.863-1.414H1.426C1.038-.951 .575-.463 0 0" fill="#223f82"/>
<path transform="matrix(1,0,0,-1,177.8975,411.72926)" d="M0 0C.075 .976 .075 1.951 .075 2.901V5.891C.025 6.967 .013 8.042-.013 9.131 .613 9.005 1.15 8.942 1.576 8.942 1.989 8.942 2.502 9.005 3.127 9.131 2.989 7.555 2.902 5.854 2.84 3.989 2.789 2.126 2.752 .212 2.752-1.739 2.752-3.09 2.864-4.128 3.077-4.841 3.314-5.566 3.577-6.104 3.902-6.479 4.266-6.893 4.716-7.242 5.253-7.518 5.804-7.793 6.429-7.905 7.154-7.905 8.205-7.905 9.081-7.681 9.818-7.192 10.507-6.705 11.02-6.117 11.345-5.416 11.52-4.966 11.645-4.604 11.745-4.278 11.857-3.966 11.945-3.553 12.008-3.027 12.07-2.515 12.096-1.789 12.107-.926 12.146-.025 12.146 1.176 12.146 2.714V6.003C12.146 6.579 12.146 7.129 12.107 7.654 12.096 8.18 12.083 8.668 12.07 9.131 12.346 9.093 12.608 9.043 12.846 8.993 13.096 8.955 13.358 8.942 13.634 8.942 13.922 8.942 14.185 8.955 14.435 8.993 14.685 9.043 14.947 9.093 15.197 9.131 15.06 7.104 14.984 5.141 14.972 3.252 14.947 1.363 14.909-.65 14.909-2.752 14.909-3.928 14.947-5.066 14.972-6.204 14.984-7.33 15.034-8.418 15.072-9.444 14.572-9.394 14.084-9.369 13.608-9.369 13.121-9.369 12.633-9.394 12.146-9.444 12.158-9.219 12.183-8.956 12.195-8.706 12.208-8.443 12.208-8.168 12.208-7.88V-6.204H12.146C11.482-7.455 10.632-8.381 9.619-8.956 8.593-9.544 7.455-9.832 6.267-9.832 4.29-9.832 2.765-9.294 1.651-8.218 .525-7.13-.037-5.566-.037-3.54-.037-2.164-.025-.976 0 0" fill="#223f82"/>
<path transform="matrix(1,0,0,-1,198.8359,400.05934)" d="M0 0C0 1.062-.025 2.089-.05 3.102-.075 4.127-.101 5.091-.15 6.016-.187 6.954-.237 7.742-.263 8.393 .425 8.268 .988 8.192 1.413 8.192 1.839 8.192 2.414 8.268 3.114 8.393 3.064 7.742 3.015 6.954 2.989 6.016 2.939 5.091 2.914 4.127 2.89 3.102 2.864 2.089 2.852 1.062 2.839 0 2.802-1.026 2.802-2.002 2.802-2.89V-9.981C2.802-10.845 2.802-11.808 2.839-12.858 2.852-13.909 2.864-14.935 2.89-15.948 2.914-16.961 2.939-17.937 2.989-18.85 3.015-19.763 3.064-20.514 3.114-21.114 2.539-21.063 1.977-21.039 1.413-21.039 .863-21.039 .288-21.063-.263-21.114-.237-20.514-.187-19.763-.15-18.85-.101-17.937-.075-16.961-.05-15.948-.025-14.935 0-13.909 0-12.858 .013-11.808 .013-10.845 .013-9.981V-2.89C.013-2.002 .013-1.026 0 0" fill="#223f82"/>
<path transform="matrix(1,0,0,-1,213.3447,394.3308)" d="M0 0C-.562 0-1.025-.112-1.413-.338-1.826-.551-2.126-.838-2.401-1.201-2.626-1.539-2.802-1.964-2.939-2.427-3.039-2.902-3.102-3.402-3.102-3.915-3.102-4.391-3.039-5.065-2.951-5.954-2.864-6.842-2.751-7.692-2.613-8.493-1.963-8.493-1.301-8.48-.687-8.468-.024-8.456 .626-8.456 1.276-8.456 1.251-8.593 1.238-8.718 1.227-8.844 1.214-8.969 1.214-9.106 1.214-9.231 1.214-9.356 1.214-9.494 1.227-9.632 1.238-9.757 1.251-9.882 1.276-10.02 .626-9.994-.024-9.981-.687-9.944-1.301-9.906-1.963-9.906-2.613-9.906-2.613-12.746-2.602-15.561-2.576-18.374-2.576-21.177-2.514-24.003-2.451-26.843-2.751-26.792-3.014-26.768-3.289-26.768H-4.09C-4.615-26.768-5.203-26.792-5.766-26.843-5.578-24.003-5.503-21.177-5.466-18.399-5.44-15.636-5.416-12.783-5.416-9.906-5.878-9.906-6.329-9.906-6.779-9.944-7.229-9.981-7.692-9.994-8.155-10.02-8.13-9.882-8.092-9.757-8.08-9.632-8.08-9.494-8.067-9.356-8.067-9.231-8.067-9.106-8.08-8.969-8.08-8.844-8.092-8.718-8.13-8.593-8.155-8.456-7.692-8.456-7.229-8.456-6.779-8.468-6.316-8.48-5.866-8.493-5.416-8.493-5.416-7.743-5.365-6.917-5.203-6.029-5.065-5.141-4.84-4.278-4.54-3.415-4.265-2.539-3.915-1.739-3.502-.964-3.114-.187-2.651 .463-2.163 .988-1.701 1.45-1.125 1.863-.45 2.238 .251 2.589 .964 2.776 1.701 2.776 1.989 2.776 2.227 2.727 2.452 2.664 2.439 2.139 2.402 1.613 2.352 1.088 2.327 .588 2.302 .05 2.302-.476L2.077-.588C1.464-.187 .788 0 0 0" fill="#223f82"/>
<path transform="matrix(1,0,0,-1,248.9932,402.18635)" d="M0 0C-.551 1.589-1.276 2.877-2.214 3.915-3.165 4.953-4.266 5.717-5.541 6.204-6.805 6.704-8.181 6.967-9.669 6.967-11.12 6.967-12.483 6.704-13.759 6.204-15.022 5.717-16.136 4.953-17.073 3.915-18.024 2.877-18.75 1.589-19.288 0-19.812-1.563-20.075-3.439-20.075-5.616-20.075-7.768-19.812-9.631-19.288-11.22-18.75-12.808-18.024-14.108-17.073-15.135-16.136-16.16-15.022-16.923-13.759-17.423-12.483-17.924-11.12-18.161-9.669-18.161-8.181-18.161-6.805-17.924-5.541-17.423-4.266-16.923-3.165-16.16-2.214-15.135-1.276-14.108-.551-12.808 0-11.22 .525-9.631 .775-7.768 .775-5.616 .775-3.439 .525-1.563 0 0M-22.74 .325C-22.039 2.052-21.076 3.527-19.838 4.716-18.587 5.929-17.111 6.842-15.36 7.455-13.621 8.08-11.732 8.394-9.669 8.394-7.567 8.394-5.679 8.08-3.928 7.455-2.202 6.842-.713 5.929 .537 4.716 1.775 3.527 2.739 2.052 3.439 .325 4.127-1.413 4.49-3.377 4.49-5.616 4.49-7.83 4.127-9.806 3.439-11.532 2.739-13.271 1.775-14.734 .537-15.935-.713-17.136-2.202-18.036-3.928-18.611-5.679-19.212-7.567-19.5-9.669-19.5-11.732-19.5-13.621-19.212-15.36-18.611-17.111-18.036-18.587-17.136-19.838-15.935-21.076-14.734-22.039-13.271-22.74-11.532-23.428-9.806-23.778-7.83-23.778-5.616-23.778-3.377-23.428-1.413-22.74 .325" fill="#223f82"/>
<path transform="matrix(1,0,0,-1,256.998,406.20094)" d="M0 0C-.038 1.275-.125 2.502-.25 3.614 .463 3.477 1.025 3.402 1.476 3.402 1.663 3.402 1.863 3.427 2.102 3.477 2.352 3.515 2.627 3.552 2.952 3.614 2.877 2.564 2.864 1.514 2.864 .487H2.927C4.265 2.826 6.116 4.002 8.518 4.002 9.144 4.002 9.756 3.902 10.369 3.702 10.957 3.515 11.507 3.239 11.995 2.914 12.495 2.564 12.934 2.164 13.271 1.676 13.621 1.2 13.858 .676 13.983 .125H14.046C14.659 1.376 15.484 2.339 16.522 3.015 17.573 3.677 18.787 4.002 20.15 4.002 20.963 4.002 21.727 3.89 22.452 3.652 23.14 3.402 23.753 3.052 24.278 2.552 24.804 2.063 25.203 1.426 25.504 .638 25.804-.15 25.916-1.088 25.916-2.177 25.916-2.627 25.916-3.103 25.892-3.627 25.866-4.152 25.842-4.753 25.816-5.441 25.804-6.142 25.767-6.917 25.729-7.793 25.716-8.668 25.704-9.682 25.704-10.819 25.704-11.532 25.716-12.195 25.716-12.858 25.729-13.509 25.767-14.222 25.816-14.973 25.528-14.922 25.266-14.885 24.991-14.885H24.19 23.365C23.077-14.885 22.802-14.922 22.539-14.973 22.602-14.334 22.702-13.009 22.789-11.02 22.877-9.043 22.914-6.279 22.914-2.727 22.914-2.076 22.852-1.464 22.702-.876 22.564-.312 22.339 .187 22.039 .601 21.727 1.013 21.339 1.351 20.838 1.601 20.312 1.826 19.687 1.977 18.937 1.977 18.012 1.977 17.261 1.776 16.61 1.426 15.973 1.051 15.497 .612 15.147 .125 14.947-.163 14.797-.45 14.685-.726 14.56-1.014 14.484-1.464 14.396-2.039 14.347-2.627 14.284-3.439 14.271-4.503 14.246-5.566 14.234-7.018 14.234-8.868 14.234-9.994 14.259-11.02 14.284-11.945 14.347-12.884 14.384-13.871 14.422-14.973 13.858-14.922 13.309-14.885 12.796-14.885 12.258-14.885 11.732-14.922 11.145-14.973 11.27-13.546 11.319-12.07 11.382-10.595 11.42-9.105 11.457-7.655 11.457-6.204 11.457-4.979 11.433-4.027 11.42-3.34 11.42-2.652 11.382-2.102 11.319-1.701 11.282-1.301 11.22-.963 11.132-.688 11.032-.437 10.919-.15 10.77 .175 10.507 .663 10.057 1.101 9.48 1.438 8.868 1.788 8.293 1.977 7.655 1.977 6.004 1.977 4.778 1.413 4.003 .275 3.239-.851 2.864-2.414 2.864-4.44V-7.768C2.864-8.943 2.877-10.182 2.901-11.47 2.939-12.771 3.039-13.934 3.152-14.973 2.564-14.922 2.001-14.885 1.476-14.885 .888-14.885 .325-14.922-.25-14.973-.125-13.934-.038-12.771 0-11.47 .025-10.182 .075-8.943 .075-7.768V-3.715C.075-2.526 .025-1.313 0 0" fill="#223f82"/>
<path transform="matrix(1,0,0,-1,295.623,411.81715)" d="M0 0C-.563-.112-1.126-.226-1.701-.338-2.265-.463-2.853-.613-3.415-.788-3.978-.963-4.491-1.226-4.916-1.526-5.342-1.839-5.691-2.239-5.967-2.702-6.229-3.177-6.367-3.777-6.367-4.516-6.367-5.729-6.004-6.667-5.342-7.279-4.679-7.905-3.928-8.218-3.09-8.218-2.151-8.218-1.289-7.942-.488-7.405 .3-6.854 .913-6.217 1.338-5.479L1.488 .388C1.05 .237 .575 .1 0 0M-4.691 9.155C-3.74 9.469-2.752 9.631-1.752 9.631-.851 9.631-.013 9.469 .737 9.206 1.501 8.931 2.151 8.543 2.676 8.043 3.214 7.53 3.627 6.904 3.939 6.179 4.239 5.479 4.39 4.703 4.39 3.827 4.39 2.339 4.353 .863 4.314-.626 4.277-2.089 4.239-3.652 4.239-5.304 4.239-5.604 4.252-5.941 4.252-6.292 4.277-6.642 4.327-6.942 4.415-7.229 4.54-7.505 4.678-7.742 4.865-7.905 5.053-8.093 5.341-8.181 5.716-8.181 5.828-8.181 5.979-8.168 6.104-8.168 6.254-8.143 6.366-8.105 6.504-8.03V-8.894C6.203-9.019 5.866-9.131 5.453-9.206 5.053-9.281 4.603-9.318 4.09-9.318 3.264-9.318 2.639-9.105 2.214-8.668 1.801-8.243 1.513-7.692 1.463-7.017 .537-7.942-.338-8.644-1.201-9.081-2.102-9.531-3.178-9.744-4.44-9.744-5.066-9.744-5.691-9.669-6.279-9.469-6.893-9.294-7.442-8.993-7.905-8.581-8.355-8.168-8.731-7.655-9.019-7.067-9.294-6.491-9.469-5.804-9.469-5.054-9.469-3.489-8.981-2.276-8.043-1.413-7.08-.562-5.804 .013-4.141 .3-2.803 .538-1.752 .738-.977 .913-.2 1.088 .362 1.251 .725 1.451 1.075 1.613 1.301 1.826 1.375 2.076 1.463 2.339 1.488 2.664 1.488 3.026 1.488 3.702 1.413 4.315 1.25 4.928 1.125 5.528 .862 6.041 .537 6.491 .237 6.93-.2 7.292-.751 7.555-1.264 7.843-1.914 7.979-2.665 7.979-3.665 7.979-4.591 7.742-5.467 7.255-6.342 6.805-7.005 6.142-7.393 5.315H-7.818V7.354C-6.705 8.243-5.654 8.843-4.691 9.155" fill="#223f82"/>
<path transform="matrix(1,0,0,-1,316.5605,405.73805)" d="M0 0C-.713 1-1.726 1.501-3.002 1.501-4.753 1.501-6.054 .95-6.879-.187-7.692-1.313-8.092-2.877-8.092-4.903V-8.243C-8.092-9.406-8.08-10.645-8.042-11.933-8.005-13.233-7.904-14.396-7.805-15.436-8.367-15.385-8.931-15.36-9.48-15.36-10.056-15.36-10.606-15.385-11.194-15.436-11.044-14.396-10.969-13.233-10.932-11.933-10.906-10.645-10.869-9.406-10.869-8.243V-4.165C-10.869-3.002-10.906-1.764-10.932-.463-10.969 .812-11.044 2.026-11.194 3.151-10.469 3.014-9.931 2.939-9.48 2.939-9.28 2.939-9.08 2.977-8.83 3.014-8.593 3.052-8.317 3.089-7.992 3.151-8.055 2.102-8.092 1.051-8.092 .024H-8.018C-7.316 1.138-6.454 2.001-5.479 2.614-4.503 3.227-3.339 3.552-1.963 3.552-1.263 3.552-.55 3.439 .163 3.214 .876 3.014 1.526 2.651 2.114 2.151 2.715 1.639 3.165 .95 3.54 .075 3.903-.801 4.091-1.914 4.091-3.265 4.091-4.391 4.078-5.541 4.003-6.729 3.966-7.918 3.94-9.182 3.94-10.494V-13.059C3.94-13.459 3.94-13.884 3.953-14.284 3.966-14.685 3.978-15.072 4.003-15.436 3.503-15.385 2.952-15.36 2.402-15.36 1.864-15.36 1.352-15.385 .839-15.436 .876-14.084 .951-12.684 1.014-11.258 1.063-9.819 1.089-8.343 1.089-6.83V-4.44C1.089-2.489 .738-1.001 0 0" fill="#223f82"/>
<path transform="matrix(1,0,0,-1,339.0752,419.44703)" d="M0 0C.551-.138 1.264-.237 2.164-.3 3.064-.375 4.003-.4 4.94-.4 6.329-.4 7.73-.226 9.094 .112 10.481 .437 11.732 1.076 12.82 2.026 13.909 2.965 14.81 4.253 15.497 5.892 16.198 7.518 16.535 9.619 16.535 12.208 16.535 14.472 16.248 16.335 15.735 17.799 15.185 19.25 14.447 20.4 13.496 21.264 12.546 22.114 11.42 22.689 10.119 23.015 8.818 23.353 7.38 23.515 5.829 23.515 4.69 23.515 3.64 23.465 2.64 23.39 1.664 23.314 .801 23.215 0 23.115-.062 21.877-.112 20.551-.162 19.187-.2 17.812-.225 16.436-.225 15.022V8.293C-.225 5.466-.138 2.701 0 0M-3.39 20.088C-3.465 21.738-3.527 23.428-3.614 25.153-2.651 25.091-1.714 25.054-.775 25.016 .2 24.979 1.126 24.953 2.089 24.953 3.052 24.953 4.003 24.991 4.94 25.054 5.879 25.116 6.817 25.153 7.793 25.153 10.007 25.153 11.896 24.854 13.459 24.24 15.035 23.652 16.323 22.802 17.323 21.688 18.337 20.588 19.062 19.225 19.525 17.611 19.988 16.01 20.251 14.209 20.251 12.208 20.251 9.606 19.8 7.393 18.925 5.616 18.074 3.814 16.948 2.389 15.598 1.288 14.247 .187 12.783-.588 11.157-1.038 9.531-1.501 7.993-1.727 6.492-1.727 5.653-1.727 4.791-1.714 3.965-1.688 3.14-1.664 2.302-1.651 1.464-1.651H-1.088C-1.901-1.651-2.752-1.676-3.614-1.727-3.527-.112-3.465 1.525-3.39 3.215-3.34 4.878-3.302 6.555-3.302 8.293V15.022C-3.302 16.748-3.34 18.424-3.39 20.088" fill="#223f82"/>
<path transform="matrix(1,0,0,-1,368.1562,404.09934)" d="M0 0C-.65-.463-1.188-1.014-1.589-1.677-2.001-2.352-2.326-3.077-2.526-3.878-2.765-4.666-2.89-5.416-2.927-6.117-2.139-6.142-1.338-6.167-.5-6.204 .338-6.229 1.163-6.242 1.989-6.242 2.814-6.242 3.64-6.229 4.503-6.204 5.354-6.167 6.191-6.142 6.979-6.117 6.979-5.416 6.942-4.679 6.817-3.903 6.717-3.103 6.492-2.377 6.154-1.701 5.804-1.026 5.328-.463 4.716 0 4.141 .425 3.327 .638 2.352 .638 1.413 .638 .638 .425 0 0M-4.152-.826C-2.664 .976-.55 1.9 2.276 1.9 3.603 1.9 4.766 1.688 5.729 1.25 6.691 .812 7.518 .25 8.168-.463 8.818-1.176 9.294-2.026 9.619-2.978 9.932-3.953 10.081-4.991 10.081-6.079 10.081-6.342 10.081-6.592 10.057-6.842 10.057-7.093 10.031-7.355 10.007-7.605 8.655-7.58 7.305-7.567 5.991-7.53 4.641-7.505 3.29-7.48 1.938-7.48 1.113-7.48 .275-7.505-.55-7.53-1.351-7.567-2.177-7.58-3.002-7.605-3.026-7.743-3.039-7.931-3.039-8.193V-8.706C-3.039-9.719-2.89-10.683-2.614-11.558-2.326-12.458-1.901-13.209-1.351-13.834-.788-14.484-.1-15.01 .688-15.373 1.514-15.748 2.439-15.936 3.478-15.936 3.99-15.936 4.503-15.86 5.041-15.735 5.566-15.585 6.066-15.385 6.566-15.147 7.092-14.885 7.555-14.598 7.98-14.271 8.418-13.909 8.818-13.559 9.144-13.171L9.331-13.284 9.118-15.197C8.343-15.823 7.417-16.361 6.304-16.799 5.179-17.249 4.016-17.462 2.814-17.462 1.451-17.462 .2-17.249-.913-16.823-2.014-16.398-3.002-15.761-3.814-14.947-4.628-14.109-5.266-13.146-5.703-12.021-6.142-10.907-6.354-9.694-6.354-8.394-6.354-5.179-5.616-2.664-4.152-.826" fill="#223f82"/>
<path transform="matrix(1,0,0,-1,381.6523,418.39625)" d="M0 0C.263-.312 .575-.613 .951-.889 1.301-1.163 1.714-1.389 2.177-1.563 2.664-1.751 3.14-1.839 3.678-1.839 4.165-1.839 4.615-1.764 5.041-1.613 5.479-1.451 5.879-1.226 6.204-.938 6.555-.65 6.842-.275 7.029 .15 7.229 .601 7.342 1.113 7.342 1.676 7.342 2.489 7.117 3.114 6.68 3.539 6.229 3.978 5.691 4.315 5.016 4.603 4.378 4.878 3.665 5.115 2.89 5.315 2.114 5.528 1.376 5.816 .726 6.204 .075 6.579-.463 7.079-.913 7.705-1.351 8.33-1.563 9.181-1.563 10.294-1.563 11.157-1.426 11.933-1.163 12.658-.875 13.371-.476 13.983 .05 14.509 .601 15.034 1.238 15.447 2.014 15.747 2.789 16.048 3.69 16.21 4.69 16.21 5.629 16.21 6.417 16.072 7.042 15.81 7.705 15.547 8.293 15.31 8.881 15.109 8.681 14.709 8.493 14.222 8.318 13.658 8.13 13.096 8.018 12.646 7.98 12.32H7.518C7.317 12.945 6.942 13.509 6.354 13.996 5.778 14.496 5.065 14.747 4.203 14.747 3.827 14.747 3.452 14.685 3.077 14.559 2.689 14.434 2.364 14.222 2.052 13.972 1.751 13.709 1.501 13.371 1.301 12.945 1.101 12.533 1.001 12.032 1.001 11.47 1.001 10.632 1.213 9.994 1.664 9.531 2.089 9.081 2.664 8.718 3.29 8.442 3.94 8.192 4.678 7.968 5.441 7.768 6.229 7.567 6.942 7.305 7.604 6.941 8.243 6.592 8.793 6.104 9.231 5.479 9.682 4.841 9.894 3.99 9.894 2.889 9.894 2.139 9.744 1.389 9.443 .663 9.118-.075 8.668-.726 8.067-1.313 7.455-1.889 6.779-2.364 5.941-2.677 5.116-3.015 4.165-3.165 3.103-3.165 1.938-3.165 .988-3.039 .2-2.814-.575-2.577-1.226-2.314-1.764-2.002-1.601-1.651-1.451-1.188-1.275-.613-1.113-.025-1.051 .463-1.051 .851H-.588C-.463 .601-.275 .312 0 0" fill="#223f82"/>
<path transform="matrix(1,0,0,-1,403.166,411.81715)" d="M0 0C-.575-.112-1.15-.226-1.714-.338-2.302-.463-2.864-.613-3.414-.788-3.978-.963-4.478-1.226-4.928-1.526-5.366-1.839-5.716-2.239-5.979-2.702-6.241-3.177-6.354-3.777-6.354-4.516-6.354-5.729-6.028-6.667-5.366-7.279-4.665-7.905-3.928-8.218-3.102-8.218-2.151-8.218-1.288-7.942-.513-7.405 .275-6.854 .889-6.217 1.326-5.479L1.477 .388C1.038 .237 .538 .1 0 0M-4.716 9.155C-3.765 9.469-2.776 9.631-1.776 9.631-.875 9.631-.05 9.469 .726 9.206 1.477 8.931 2.127 8.543 2.664 8.043 3.202 7.53 3.615 6.904 3.915 6.179 4.228 5.479 4.391 4.703 4.391 3.827 4.391 2.339 4.365 .863 4.29-.626 4.24-2.089 4.228-3.652 4.228-5.304 4.228-5.604 4.228-5.941 4.24-6.292 4.266-6.642 4.303-6.942 4.415-7.229 4.516-7.505 4.653-7.742 4.841-7.905 5.028-8.093 5.328-8.181 5.691-8.181 5.816-8.181 5.954-8.168 6.104-8.168 6.229-8.143 6.354-8.105 6.504-8.03V-8.894C6.217-9.019 5.879-9.131 5.454-9.206 5.028-9.281 4.578-9.318 4.078-9.318 3.252-9.318 2.627-9.105 2.201-8.668 1.764-8.243 1.501-7.692 1.438-7.017 .538-7.942-.375-8.644-1.226-9.081-2.102-9.531-3.189-9.744-4.453-9.744-5.091-9.744-5.691-9.669-6.304-9.469-6.904-9.294-7.43-8.993-7.893-8.581-8.368-8.168-8.756-7.655-9.056-7.067-9.318-6.491-9.469-5.804-9.469-5.054-9.469-3.489-8.98-2.276-8.067-1.413-7.117-.562-5.828 .013-4.178 .3-2.802 .538-1.751 .738-.988 .913-.225 1.088 .338 1.251 .7 1.451 1.051 1.613 1.288 1.826 1.351 2.076 1.438 2.339 1.477 2.664 1.477 3.026 1.477 3.702 1.389 4.315 1.264 4.928 1.113 5.528 .863 6.041 .538 6.491 .2 6.93-.225 7.292-.75 7.555-1.288 7.843-1.926 7.979-2.677 7.979-3.677 7.979-4.615 7.742-5.491 7.255-6.354 6.805-6.992 6.142-7.417 5.315H-7.854V7.354C-6.717 8.243-5.653 8.843-4.716 9.155" fill="#223f82"/>
<path transform="matrix(1,0,0,-1,413.8604,400.05934)" d="M0 0C-.024 1.062-.024 2.089-.088 3.102-.088 4.127-.1 5.091-.138 6.016-.2 6.954-.237 7.742-.275 8.393 .437 8.268 .976 8.192 1.413 8.192 1.839 8.192 2.401 8.268 3.114 8.393 3.052 7.742 3.027 6.954 2.977 6.016 2.952 5.091 2.902 4.127 2.89 3.102 2.864 2.089 2.84 1.062 2.84 0 2.827-1.026 2.802-2.002 2.802-2.89V-9.981C2.802-10.845 2.827-11.808 2.84-12.858 2.84-13.909 2.864-14.935 2.89-15.948 2.902-16.961 2.952-17.937 2.977-18.85 3.027-19.763 3.052-20.514 3.114-21.114 2.526-21.063 1.964-21.039 1.413-21.039 .863-21.039 .275-21.063-.275-21.114-.237-20.514-.2-19.763-.138-18.85-.1-17.937-.088-16.961-.088-15.948-.024-14.935-.024-13.909 0-12.858 .013-11.808 .013-10.845 .013-9.981V-2.89C.013-2.002 .013-1.026 0 0" fill="#223f82"/>
<path transform="matrix(1,0,0,-1,423.3662,406.20094)" d="M0 0C-.037 1.275-.138 2.502-.25 3.614 .45 3.477 1.038 3.402 1.464 3.402 1.864 3.402 2.452 3.477 3.14 3.614 3.015 2.502 2.939 1.275 2.877 0 2.864-1.313 2.853-2.526 2.853-3.715V-7.768C2.853-8.943 2.864-10.182 2.877-11.47 2.939-12.771 3.015-13.934 3.14-14.973 2.564-14.922 2.001-14.885 1.464-14.885 .901-14.885 .325-14.922-.25-14.973-.138-13.934-.037-12.771 0-11.47 .038-10.182 .05-8.943 .05-7.768V-3.715C.05-2.526 .038-1.313 0 0M.088 11.832C.476 12.232 .926 12.408 1.464 12.408 2.001 12.408 2.439 12.232 2.814 11.832 3.189 11.444 3.378 10.981 3.378 10.419 3.378 9.869 3.189 9.406 2.814 9.006 2.439 8.618 2.001 8.418 1.464 8.418 .926 8.418 .476 8.618 .088 9.006-.288 9.406-.463 9.869-.463 10.419-.463 10.981-.288 11.444 .088 11.832" fill="#223f82"/>
<path transform="matrix(1,0,0,-1,443.1885,405.73805)" d="M0 0C-.738 1-1.726 1.501-3.04 1.501-4.766 1.501-6.066 .95-6.892-.187-7.705-1.313-8.13-2.877-8.13-4.903V-8.243C-8.13-9.406-8.08-10.645-8.056-11.933-8.018-13.233-7.931-14.396-7.817-15.436-8.38-15.385-8.943-15.36-9.519-15.36-10.057-15.36-10.632-15.385-11.207-15.436-11.082-14.396-11.007-13.233-10.97-11.933-10.944-10.645-10.907-9.406-10.907-8.243V-4.165C-10.907-3.002-10.944-1.764-10.97-.463-11.007 .812-11.082 2.026-11.207 3.151-10.507 3.014-9.932 2.939-9.519 2.939-9.294 2.939-9.093 2.977-8.843 3.014-8.605 3.052-8.33 3.089-8.005 3.151-8.067 2.102-8.13 1.051-8.13 .024H-8.03C-7.343 1.138-6.479 2.001-5.504 2.614-4.516 3.227-3.34 3.552-1.989 3.552-1.264 3.552-.575 3.439 .163 3.214 .863 3.014 1.501 2.651 2.089 2.151 2.677 1.639 3.151 .95 3.515 .075 3.878-.801 4.077-1.914 4.077-3.265 4.077-4.391 4.053-5.541 3.978-6.729 3.94-7.918 3.915-9.182 3.915-10.494V-13.059C3.915-13.459 3.94-13.884 3.94-14.284 3.94-14.685 3.952-15.072 3.978-15.436 3.478-15.385 2.952-15.36 2.389-15.36 1.851-15.36 1.325-15.385 .825-15.436 .876-14.084 .938-12.684 1.001-11.258 1.063-9.819 1.088-8.343 1.088-6.83V-4.44C1.088-2.489 .713-1.001 0 0" fill="#223f82"/>
<path transform="matrix(1,0,0,-1,460.1738,411.81715)" d="M0 0C-.55-.112-1.125-.226-1.701-.338-2.264-.463-2.839-.613-3.414-.788-3.965-.963-4.49-1.226-4.902-1.526-5.341-1.839-5.703-2.239-5.953-2.702-6.216-3.177-6.354-3.777-6.354-4.516-6.354-5.729-6.016-6.667-5.341-7.279-4.665-7.905-3.914-8.218-3.102-8.218-2.15-8.218-1.275-7.942-.487-7.405 .301-6.854 .914-6.217 1.339-5.479L1.488 .388C1.063 .237 .576 .1 0 0M-4.703 9.155C-3.727 9.469-2.764 9.631-1.751 9.631-.838 9.631-.024 9.469 .738 9.206 1.488 8.931 2.152 8.543 2.689 8.043 3.215 7.53 3.628 6.904 3.916 6.179 4.253 5.479 4.378 4.703 4.378 3.827 4.378 2.339 4.365 .863 4.328-.626 4.266-2.089 4.253-3.652 4.253-5.304 4.253-5.604 4.253-5.941 4.266-6.292 4.278-6.642 4.341-6.942 4.44-7.229 4.516-7.505 4.679-7.742 4.866-7.905 5.054-8.093 5.342-8.181 5.717-8.181 5.829-8.181 5.967-8.168 6.117-8.168 6.242-8.143 6.379-8.105 6.505-8.03V-8.894C6.229-9.019 5.892-9.131 5.467-9.206 5.054-9.281 4.604-9.318 4.091-9.318 3.277-9.318 2.64-9.105 2.227-8.668 1.802-8.243 1.514-7.692 1.464-7.017 .551-7.942-.338-8.644-1.213-9.081-2.088-9.531-3.177-9.744-4.428-9.744-5.09-9.744-5.703-9.669-6.291-9.469-6.904-9.294-7.43-8.993-7.904-8.581-8.355-8.168-8.718-7.655-9.018-7.067-9.306-6.491-9.455-5.804-9.455-5.054-9.455-3.489-8.968-2.276-8.042-1.413-7.079-.562-5.815 .013-4.165 .3-2.801 .538-1.738 .738-.963 .913-.212 1.088 .376 1.251 .713 1.451 1.076 1.613 1.301 1.826 1.376 2.076 1.464 2.339 1.488 2.664 1.488 3.026 1.488 3.702 1.414 4.315 1.251 4.928 1.113 5.528 .863 6.041 .551 6.491 .226 6.93-.212 7.292-.75 7.555-1.263 7.843-1.913 7.979-2.664 7.979-3.652 7.979-4.615 7.742-5.479 7.255-6.341 6.805-6.979 6.142-7.43 5.315H-7.83V7.354C-6.704 8.243-5.641 8.843-4.703 9.155" fill="#223f82"/>
<path transform="matrix(1,0,0,-1,473.3457,397.34544)" d="M0 0C-.062-.988-.126-1.977-.15-2.914-.188-3.877-.238-4.828-.288-5.791-.025-5.791 .487-5.791 1.275-5.778 2.001-5.754 2.813-5.741 3.715-5.666 3.677-5.754 3.664-5.892 3.664-6.116V-6.504-6.93C3.664-7.117 3.677-7.242 3.715-7.317 3.377-7.292 3.039-7.279 2.701-7.255 2.326-7.242 1.976-7.242 1.551-7.242H-.288C-.326-7.354-.351-7.755-.389-8.493-.426-9.219-.463-10.081-.476-11.095-.501-12.096-.525-13.146-.525-14.234-.551-15.335-.551-16.311-.551-17.174-.551-17.898-.525-18.624-.501-19.337-.463-20.038-.351-20.663-.15-21.227 .05-21.789 .375-22.239 .763-22.577 1.176-22.927 1.75-23.09 2.501-23.09 2.701-23.09 2.964-23.064 3.326-23.002 3.664-22.952 3.927-22.902 4.189-22.814V-23.74C3.765-23.828 3.289-23.928 2.776-24.053 2.275-24.153 1.775-24.216 1.288-24.216-.288-24.216-1.464-23.815-2.202-23.002-2.965-22.214-3.365-21.025-3.365-19.45-3.365-18.737-3.328-17.986-3.315-17.161-3.29-16.336-3.253-15.435-3.228-14.459-3.178-13.483-3.141-12.396-3.127-11.207-3.103-10.031-3.09-8.705-3.09-7.242H-4.278C-4.491-7.242-4.703-7.242-4.941-7.255-5.154-7.279-5.404-7.292-5.629-7.317-5.617-7.154-5.604-7.029-5.592-6.867-5.579-6.729-5.579-6.566-5.579-6.429-5.579-6.291-5.579-6.166-5.592-6.029-5.604-5.892-5.617-5.778-5.629-5.641-4.516-5.716-3.69-5.754-3.152-5.754-3.178-5.229-3.228-4.578-3.228-3.803-3.228-3.015-3.266-2.201-3.315-1.376L-.176 0Z" fill="#223f82"/>
<path transform="matrix(1,0,0,-1,480.3994,406.20094)" d="M0 0C-.037 1.275-.125 2.502-.263 3.614 .438 3.477 1.014 3.402 1.451 3.402 1.876 3.402 2.427 3.477 3.14 3.614 3.015 2.502 2.915 1.275 2.89 0 2.864-1.313 2.853-2.526 2.853-3.715V-7.768C2.853-8.943 2.864-10.182 2.89-11.47 2.915-12.771 3.015-13.934 3.14-14.973 2.552-14.922 1.989-14.885 1.451-14.885 .876-14.885 .325-14.922-.263-14.973-.125-13.934-.037-12.771 0-11.47 .025-10.182 .05-8.943 .05-7.768V-3.715C.05-2.526 .025-1.313 0 0M.075 11.832C.463 12.232 .901 12.408 1.451 12.408 1.964 12.408 2.414 12.232 2.802 11.832 3.165 11.444 3.365 10.981 3.365 10.419 3.365 9.869 3.165 9.406 2.802 9.006 2.414 8.618 1.964 8.418 1.451 8.418 .901 8.418 .463 8.618 .075 9.006-.287 9.406-.487 9.869-.487 10.419-.487 10.981-.287 11.444 .075 11.832" fill="#223f82"/>
<path transform="matrix(1,0,0,-1,491.0566,415.10713)" d="M0 0C.2-1.013 .525-1.938 .976-2.714 1.4-3.515 2.014-4.152 2.776-4.615 3.539-5.078 4.465-5.328 5.566-5.328 6.679-5.328 7.604-5.078 8.355-4.615 9.118-4.152 9.706-3.515 10.182-2.714 10.619-1.938 10.944-1.013 11.119 0 11.319 1.014 11.42 2.064 11.42 3.165 11.42 4.253 11.319 5.316 11.119 6.329 10.944 7.355 10.619 8.256 10.182 9.057 9.706 9.844 9.118 10.482 8.355 10.945 7.604 11.42 6.679 11.646 5.566 11.646 4.465 11.646 3.539 11.42 2.776 10.945 2.014 10.482 1.4 9.844 .976 9.057 .525 8.256 .2 7.355 0 6.329-.176 5.316-.263 4.253-.263 3.165-.263 2.064-.176 1.014 0 0M-2.789 7.681C-2.239 8.919-1.539 9.919-.663 10.694 .237 11.471 1.213 12.021 2.313 12.383 3.402 12.733 4.478 12.921 5.566 12.921 6.679 12.921 7.768 12.733 8.855 12.383 9.919 12.021 10.919 11.471 11.795 10.694 12.683 9.919 13.383 8.919 13.934 7.681 14.472 6.454 14.734 4.941 14.734 3.165 14.734 1.389 14.472-.112 13.934-1.351 13.383-2.589 12.683-3.602 11.795-4.365 10.919-5.128 9.919-5.678 8.855-5.991 7.768-6.304 6.679-6.454 5.566-6.454 4.478-6.454 3.402-6.304 2.313-5.991 1.213-5.678 .237-5.128-.663-4.365-1.539-3.602-2.239-2.589-2.789-1.351-3.314-.112-3.577 1.389-3.577 3.165-3.577 4.941-3.314 6.454-2.789 7.681" fill="#223f82"/>
<path transform="matrix(1,0,0,-1,520.2246,405.73805)" d="M0 0C-.713 1-1.726 1.501-3.002 1.501-4.766 1.501-6.054 .95-6.879-.187-7.691-1.313-8.092-2.877-8.092-4.903V-8.243C-8.092-9.406-8.067-10.645-8.055-11.933-7.992-13.233-7.917-14.396-7.805-15.436-8.38-15.385-8.943-15.36-9.493-15.36-10.043-15.36-10.606-15.385-11.194-15.436-11.069-14.396-10.969-13.233-10.944-11.933-10.906-10.645-10.882-9.406-10.882-8.243V-4.165C-10.882-3.002-10.906-1.764-10.944-.463-10.969 .812-11.069 2.026-11.194 3.151-10.481 3.014-9.931 2.939-9.493 2.939-9.293 2.939-9.068 2.977-8.83 3.014-8.593 3.052-8.305 3.089-7.979 3.151-8.067 2.102-8.092 1.051-8.092 .024H-8.018C-7.305 1.138-6.467 2.001-5.479 2.614-4.515 3.227-3.326 3.552-1.963 3.552-1.263 3.552-.537 3.439 .163 3.214 .901 3.014 1.526 2.651 2.127 2.151 2.702 1.639 3.165 .95 3.54 .075 3.891-.801 4.091-1.914 4.091-3.265 4.091-4.391 4.078-5.541 4.016-6.729 3.966-7.918 3.94-9.182 3.94-10.494V-13.059C3.94-13.459 3.94-13.884 3.953-14.284 3.966-14.685 3.979-15.072 4.016-15.436 3.49-15.385 2.978-15.36 2.402-15.36 1.864-15.36 1.352-15.385 .838-15.436 .901-14.084 .938-12.684 1.014-11.258 1.063-9.819 1.113-8.343 1.113-6.83V-4.44C1.113-2.489 .726-1.001 0 0" fill="#223f82"/>
<path transform="matrix(1,0,0,-1,557.8496,420.24784)" d="M0 0C-.476-.25-1.076-.475-1.752-.675-2.452-.875-3.24-1.038-4.078-1.2-4.941-1.363-5.816-1.438-6.768-1.438-8.744-1.438-10.595-1.15-12.271-.55-13.959 .025-15.398 .926-16.611 2.127-17.837 3.327-18.8 4.791-19.5 6.529-20.188 8.256-20.526 10.231-20.526 12.458-20.526 14.672-20.188 16.648-19.5 18.387-18.8 20.113-17.837 21.589-16.586 22.777-15.336 23.99-13.847 24.903-12.121 25.517-10.382 26.142-8.469 26.455-6.393 26.455-4.741 26.455-3.215 26.292-1.84 25.93-.476 25.579 .737 25.166 1.812 24.653 1.601 24.291 1.426 23.803 1.312 23.178 1.187 22.552 1.088 22.026 1 21.614L.787 21.526C.524 21.852 .187 22.202-.275 22.59-.738 22.99-1.252 23.365-1.864 23.715-2.452 24.091-3.128 24.391-3.891 24.641-4.641 24.891-5.467 25.028-6.393 25.028-7.868 25.028-9.244 24.766-10.52 24.266-11.783 23.778-12.884 23.015-13.822 21.977-14.772 20.938-15.511 19.65-16.036 18.062-16.561 16.498-16.836 14.622-16.836 12.458-16.836 10.294-16.561 8.431-16.036 6.842-15.511 5.254-14.772 3.953-13.822 2.927-12.884 1.901-11.783 1.139-10.52 .639-9.244 .138-7.868-.1-6.393-.1-5.467-.1-4.641 0-3.878 .25-3.115 .488-2.414 .764-1.752 1.088-1.113 1.414-.551 1.764-.025 2.139 .475 2.515 .925 2.852 1.263 3.14L1.426 2.978 1.088 .676C.875 .463 .487 .25 0 0" fill="#223f82"/>
<path transform="matrix(1,0,0,-1,564.8789,415.10713)" d="M0 0C.162-1.013 .513-1.938 .976-2.714 1.413-3.515 2.001-4.152 2.764-4.615 3.527-5.078 4.439-5.328 5.553-5.328 6.666-5.328 7.592-5.078 8.343-4.615 9.105-4.152 9.706-3.515 10.169-2.714 10.606-1.938 10.932-1.013 11.119 0 11.319 1.014 11.407 2.064 11.407 3.165 11.407 4.253 11.319 5.316 11.119 6.329 10.932 7.355 10.606 8.256 10.169 9.057 9.706 9.844 9.105 10.482 8.343 10.945 7.592 11.42 6.666 11.646 5.553 11.646 4.439 11.646 3.527 11.42 2.764 10.945 2.001 10.482 1.413 9.844 .976 9.057 .513 8.256 .162 7.355 0 6.329-.187 5.316-.288 4.253-.288 3.165-.288 2.064-.187 1.014 0 0M-2.789 7.681C-2.252 8.919-1.551 9.919-.663 10.694 .212 11.471 1.2 12.021 2.301 12.383 3.389 12.733 4.478 12.921 5.553 12.921 6.666 12.921 7.742 12.733 8.843 12.383 9.906 12.021 10.919 11.471 11.782 10.694 12.658 9.919 13.358 8.919 13.921 7.681 14.446 6.454 14.722 4.941 14.722 3.165 14.722 1.389 14.446-.112 13.921-1.351 13.358-2.589 12.658-3.602 11.782-4.365 10.919-5.128 9.906-5.678 8.843-5.991 7.742-6.304 6.666-6.454 5.553-6.454 4.478-6.454 3.389-6.304 2.301-5.991 1.2-5.678 .212-5.128-.663-4.365-1.551-3.602-2.252-2.589-2.789-1.351-3.34-.112-3.603 1.389-3.603 3.165-3.603 4.941-3.34 6.454-2.789 7.681" fill="#223f82"/>
<path transform="matrix(1,0,0,-1,582.8525,406.20094)" d="M0 0C-.025 1.275-.088 2.502-.226 3.614 .476 3.477 1.038 3.402 1.488 3.402 1.663 3.402 1.876 3.427 2.114 3.477 2.352 3.515 2.64 3.552 2.964 3.614 2.901 2.564 2.864 1.514 2.864 .487H2.927C4.277 2.826 6.142 4.002 8.53 4.002 9.155 4.002 9.769 3.902 10.382 3.702 10.981 3.515 11.52 3.239 12.021 2.914 12.508 2.564 12.921 2.164 13.283 1.676 13.634 1.2 13.847 .676 13.983 .125H14.059C14.685 1.376 15.485 2.339 16.535 3.015 17.599 3.677 18.787 4.002 20.163 4.002 20.988 4.002 21.739 3.89 22.477 3.652 23.177 3.402 23.777 3.052 24.303 2.552 24.804 2.063 25.216 1.426 25.504 .638 25.816-.15 25.941-1.088 25.941-2.177 25.941-2.627 25.917-3.103 25.904-3.627 25.892-4.152 25.841-4.753 25.829-5.441 25.816-6.142 25.778-6.917 25.754-7.793 25.716-8.668 25.716-9.682 25.716-10.819V-12.858C25.741-13.509 25.778-14.222 25.829-14.973 25.554-14.922 25.278-14.885 24.991-14.885H24.216 23.378C23.103-14.885 22.827-14.922 22.539-14.973 22.614-14.334 22.714-13.009 22.79-11.02 22.89-9.043 22.915-6.279 22.915-2.727 22.915-2.076 22.84-1.464 22.714-.876 22.577-.312 22.352 .187 22.052 .601 21.739 1.013 21.351 1.351 20.825 1.601 20.338 1.826 19.7 1.977 18.937 1.977 18.036 1.977 17.261 1.776 16.623 1.426 16.011 1.051 15.51 .612 15.159 .125 14.96-.163 14.81-.45 14.696-.726 14.571-1.014 14.497-1.464 14.409-2.039 14.347-2.627 14.297-3.439 14.284-4.503 14.259-5.566 14.247-7.018 14.247-8.868 14.247-9.994 14.259-11.02 14.297-11.945 14.347-12.884 14.384-13.871 14.446-14.973 13.884-14.922 13.321-14.885 12.808-14.885 12.271-14.885 11.732-14.922 11.157-14.973 11.27-13.546 11.357-12.07 11.395-10.595 11.42-9.105 11.444-7.655 11.444-6.204V-3.34C11.42-2.652 11.395-2.102 11.357-1.701 11.295-1.301 11.207-.963 11.132-.688 11.044-.437 10.932-.15 10.77 .175 10.507 .663 10.069 1.101 9.493 1.438 8.881 1.788 8.293 1.977 7.667 1.977 6.004 1.977 4.79 1.413 4.027 .275 3.252-.851 2.864-2.414 2.864-4.44V-7.768C2.864-8.943 2.877-10.182 2.927-11.47 2.952-12.771 3.052-13.934 3.165-14.973 2.589-14.922 2.001-14.885 1.488-14.885 .913-14.885 .338-14.922-.226-14.973-.088-13.934-.025-12.771 0-11.47 .062-10.182 .075-8.943 .075-7.768V-3.715C.075-2.526 .062-1.313 0 0" fill="#223f82"/>
<path transform="matrix(1,0,0,-1,626.0674,407.91484)" d="M0 0C-.325 1.025-.737 1.839-1.226 2.452-1.714 3.052-2.276 3.49-2.89 3.715-3.527 3.952-4.152 4.077-4.753 4.077-5.753 4.077-6.616 3.853-7.342 3.402-8.055 2.952-8.643 2.364-9.093 1.626-9.544 .888-9.868 0-10.069-.988-10.269-1.988-10.369-3.064-10.369-4.19-10.369-9.618-8.53-12.333-4.878-12.333-3.952-12.333-3.189-12.107-2.501-11.67-1.839-11.245-1.301-10.657-.862-9.868-.413-9.105-.087-8.205 .138-7.18 .351-6.142 .463-5.041 .463-3.877 .463-2.313 .312-1.013 0 0M-13.184-3.164C-13.196-2.139-13.208-1.101-13.233-.062-13.271 .963-13.296 1.964-13.321 2.89-13.358 3.84-13.421 4.641-13.471 5.316-12.745 5.19-12.208 5.128-11.757 5.128-11.332 5.128-10.782 5.19-10.069 5.316-10.182 4.641-10.244 4.003-10.294 3.364-10.344 2.739-10.369 2.114-10.369 1.488H-10.294C-10.106 1.914-9.868 2.352-9.544 2.839-9.218 3.327-8.78 3.777-8.28 4.216-7.755 4.628-7.13 4.991-6.417 5.291-5.679 5.579-4.865 5.716-3.927 5.716-2.964 5.716-2.014 5.517-1.088 5.141-.162 4.766 .65 4.19 1.376 3.402 2.089 2.627 2.677 1.626 3.114 .413 3.565-.801 3.777-2.251 3.777-3.902 3.777-5.578 3.54-7.029 3.04-8.243 2.564-9.481 1.951-10.481 1.214-11.308 .413-12.107-.45-12.708-1.45-13.083-2.414-13.458-3.39-13.646-4.39-13.646-7.13-13.646-9.118-12.408-10.294-9.932H-10.369V-12.396C-10.369-13.233-10.369-14.171-10.344-15.197-10.344-16.223-10.319-17.261-10.294-18.262-10.269-19.287-10.231-20.25-10.194-21.188-10.182-22.114-10.106-22.902-10.069-23.553-10.782-23.428-11.332-23.34-11.757-23.34-12.208-23.34-12.745-23.428-13.471-23.553-13.421-22.902-13.358-22.114-13.321-21.188-13.296-20.25-13.271-19.287-13.233-18.262-13.208-17.261-13.196-16.223-13.184-15.197-13.171-14.171-13.171-13.233-13.171-12.396V-6.066C-13.171-5.179-13.171-4.215-13.184-3.164" fill="#223f82"/>
<path transform="matrix(1,0,0,-1,641.502,411.81715)" d="M0 0C-.55-.112-1.113-.226-1.701-.338-2.251-.463-2.839-.613-3.389-.788-3.965-.963-4.478-1.226-4.891-1.526-5.341-1.839-5.69-2.239-5.953-2.702-6.216-3.177-6.341-3.777-6.341-4.516-6.341-5.729-5.991-6.667-5.341-7.279-4.652-7.905-3.902-8.218-3.076-8.218-2.126-8.218-1.263-7.942-.475-7.405 .313-6.854 .914-6.217 1.352-5.479L1.502 .388C1.051 .237 .576 .1 0 0M-4.678 9.155C-3.727 9.469-2.764 9.631-1.738 9.631-.85 9.631-.012 9.469 .738 9.206 1.514 8.931 2.152 8.543 2.689 8.043 3.228 7.53 3.641 6.904 3.94 6.179 4.266 5.479 4.403 4.703 4.403 3.827 4.403 2.339 4.365 .863 4.328-.626 4.291-2.089 4.266-3.652 4.266-5.304V-6.292C4.291-6.642 4.328-6.942 4.44-7.229 4.553-7.505 4.679-7.742 4.879-7.905 5.078-8.093 5.342-8.181 5.717-8.181 5.854-8.181 5.992-8.168 6.117-8.168 6.254-8.143 6.404-8.105 6.518-8.03V-8.894C6.229-9.019 5.879-9.131 5.479-9.206 5.078-9.281 4.616-9.318 4.104-9.318 3.277-9.318 2.664-9.105 2.227-8.668 1.802-8.243 1.539-7.692 1.477-7.017 .551-7.942-.324-8.644-1.213-9.081-2.088-9.531-3.164-9.744-4.439-9.744-5.065-9.744-5.678-9.669-6.278-9.469-6.879-9.294-7.43-8.993-7.893-8.581-8.33-8.168-8.718-7.655-9.018-7.067-9.293-6.491-9.443-5.804-9.443-5.054-9.443-3.489-8.968-2.276-8.018-1.413-7.079-.562-5.791 .013-4.127 .3-2.801 .538-1.726 .738-.975 .913-.199 1.088 .363 1.251 .713 1.451 1.089 1.613 1.313 1.826 1.376 2.076 1.477 2.339 1.502 2.664 1.502 3.026 1.502 3.702 1.414 4.315 1.264 4.928 1.139 5.528 .889 6.041 .551 6.491 .238 6.93-.199 7.292-.725 7.555-1.25 7.843-1.9 7.979-2.651 7.979-3.664 7.979-4.59 7.742-5.453 7.255-6.316 6.805-6.991 6.142-7.379 5.315H-7.805V7.354C-6.679 8.243-5.653 8.843-4.678 9.155" fill="#223f82"/>
<path transform="matrix(1,0,0,-1,662.4531,405.73805)" d="M0 0C-.713 1-1.738 1.501-3.002 1.501-4.753 1.501-6.066 .95-6.867-.187-7.705-1.313-8.093-2.877-8.093-4.903V-8.243C-8.093-9.406-8.067-10.645-8.03-11.933-7.992-13.233-7.918-14.396-7.793-15.436-8.38-15.385-8.943-15.36-9.493-15.36-10.068-15.36-10.619-15.385-11.194-15.436-11.057-14.396-10.97-13.233-10.944-11.933-10.906-10.645-10.882-9.406-10.882-8.243V-4.165C-10.882-3.002-10.906-1.764-10.944-.463-10.97 .812-11.057 2.026-11.194 3.151-10.494 3.014-9.932 2.939-9.493 2.939-9.306 2.939-9.08 2.977-8.843 3.014-8.593 3.052-8.305 3.089-7.992 3.151-8.067 2.102-8.093 1.051-8.093 .024H-8.018C-7.317 1.138-6.454 2.001-5.491 2.614-4.516 3.227-3.34 3.552-1.964 3.552-1.275 3.552-.551 3.439 .162 3.214 .889 3.014 1.526 2.651 2.114 2.151 2.702 1.639 3.164 .95 3.527 .075 3.915-.801 4.09-1.914 4.09-3.265 4.09-4.391 4.04-5.541 4.003-6.729 3.965-7.918 3.94-9.182 3.94-10.494V-13.059C3.94-13.459 3.94-13.884 3.953-14.284 3.965-14.685 3.99-15.072 4.003-15.436 3.49-15.385 2.952-15.36 2.401-15.36 1.863-15.36 1.352-15.385 .838-15.436 .889-14.084 .963-12.684 1.014-11.258 1.063-9.819 1.126-8.343 1.126-6.83V-4.44C1.126-2.489 .726-1.001 0 0" fill="#223f82"/>
<path transform="matrix(1,0,0,-1,675.0488,418.48414)" d="M0 0C-.437 1.139-.913 2.326-1.414 3.564-1.926 4.791-2.439 6.054-2.965 7.354-3.49 8.631-3.99 9.831-4.453 10.982-4.916 12.12-5.328 13.108-5.679 13.984-6.029 14.848-6.291 15.485-6.479 15.897-6.154 15.848-5.842 15.798-5.566 15.748-5.304 15.723-5.016 15.697-4.74 15.697-4.453 15.697-4.178 15.723-3.915 15.748-3.64 15.798-3.34 15.848-3.015 15.897-2.227 13.384-1.363 10.907-.413 8.443 .551 6.004 1.563 3.478 2.614 .876 3.665 3.152 4.703 5.616 5.653 8.23 6.617 10.832 7.492 13.384 8.255 15.897 8.73 15.76 9.156 15.697 9.48 15.697 9.807 15.697 10.244 15.76 10.731 15.897 10.531 15.522 10.257 14.91 9.869 14.047 9.493 13.158 9.031 12.12 8.48 10.907 7.942 9.693 7.354 8.355 6.704 6.867 6.079 5.391 5.429 3.891 4.753 2.339 4.078 .788 3.414-.763 2.764-2.276 2.102-3.803 1.514-5.253 .95-6.629 .412-7.992-.1-9.23-.513-10.344-.9-11.444-1.213-12.333-1.414-12.983-1.926-12.858-2.352-12.771-2.702-12.771-3.039-12.771-3.478-12.858-3.99-12.983-2.002-9.568-.301-6.153 1.062-2.727 .788-2.026 .426-1.113 0 0" fill="#223f82"/>
<path transform="matrix(1,0,0,-1,698.877,417.52125)" d="M0 0C.35-.487 .75-.913 1.238-1.312 1.726-1.701 2.313-2.025 2.964-2.264 3.627-2.514 4.34-2.639 5.152-2.639 5.99-2.639 6.741-2.488 7.404-2.188 8.067-1.889 8.617-1.488 9.093-.963 9.556-.463 9.918 .138 10.168 .826 10.406 1.514 10.557 2.252 10.557 3.04 10.557 4.24 10.256 5.179 9.656 5.892 9.068 6.604 8.33 7.18 7.454 7.655 6.578 8.118 5.641 8.556 4.615 8.943 3.59 9.331 2.639 9.819 1.764 10.407 .875 10.995 .149 11.745-.451 12.658-1.051 13.571-1.326 14.797-1.326 16.336-1.326 17.437-1.139 18.437-.775 19.338-.4 20.226 .149 21.001 .875 21.651 1.575 22.314 2.438 22.827 3.451 23.19 4.452 23.553 5.578 23.729 6.842 23.729 8.055 23.729 9.093 23.591 9.993 23.29 10.856 22.978 11.67 22.515 12.42 21.902 12.207 21.451 12.007 20.977 11.857 20.488 11.72 19.988 11.569 19.363 11.419 18.612H10.957C10.844 18.975 10.669 19.375 10.456 19.801 10.23 20.226 9.931 20.639 9.58 21.001 9.218 21.364 8.793 21.664 8.279 21.914 7.767 22.152 7.166 22.302 6.466 22.302 5.766 22.302 5.115 22.164 4.515 21.927 3.965 21.689 3.414 21.364 2.977 20.926 2.551 20.501 2.201 19.988 1.963 19.388 1.726 18.787 1.613 18.137 1.613 17.437 1.613 16.211 1.889 15.235 2.477 14.535 3.076 13.834 3.814 13.246 4.678 12.759 5.565 12.271 6.516 11.846 7.555 11.471 8.555 11.095 9.53 10.632 10.394 10.069 11.281 9.531 12.007 8.831 12.595 7.98 13.195 7.105 13.496 5.954 13.496 4.528 13.496 3.327 13.283 2.177 12.857 1.126 12.445 .051 11.857-.875 11.044-1.663 10.256-2.464 9.28-3.089 8.143-3.515 7.004-3.939 5.703-4.165 4.252-4.165 2.676-4.165 1.426-3.939 .449-3.515-.501-3.089-1.313-2.602-1.989-2.051-1.752-1.45-1.589-.913-1.489-.425-1.414 .051-1.326 .676-1.251 1.438H-.801C-.613 .964-.338 .476 0 0" fill="#223f82"/>
<path transform="matrix(1,0,0,-1,720.9277,409.00276)" d="M0 0C.663 0 1.326-.013 2.026-.062 2.752-.075 3.415-.088 4.078-.088 4.766-.088 5.479-.075 6.154-.062 6.88-.062 7.58-.025 8.293 0L4.103 9.931ZM16.698-12.171C16.348-12.12 16.023-12.083 15.697-12.083H14.697 13.696C13.396-12.083 13.071-12.12 12.695-12.171 12.533-11.57 12.296-10.845 11.995-10.007 11.683-9.156 11.37-8.268 10.995-7.343 10.645-6.417 10.244-5.479 9.882-4.516 9.494-3.577 9.131-2.664 8.818-1.802 8.018-1.764 7.205-1.764 6.367-1.751 5.529-1.727 4.703-1.727 3.878-1.727 3.103-1.727 2.326-1.727 1.589-1.751 .826-1.764 .062-1.764-.725-1.802-1.514-3.84-2.251-5.779-2.901-7.617-3.564-9.456-4.053-10.982-4.377-12.171-4.815-12.12-5.278-12.083-5.778-12.083-6.279-12.083-6.741-12.12-7.167-12.171-5.128-7.605-3.151-3.064-1.226 1.438 .726 5.954 2.677 10.544 4.628 15.21H5.366C5.967 13.696 6.604 12.07 7.305 10.307 8.018 8.543 8.743 6.767 9.456 4.953 10.194 3.164 10.92 1.376 11.646-.4 12.371-2.164 13.071-3.827 13.696-5.354 14.334-6.867 14.935-8.243 15.436-9.432 15.948-10.632 16.386-11.558 16.698-12.171" fill="#223f82"/>
<path transform="matrix(1,0,0,-1,761.5537,402.18635)" d="M0 0C-.525 1.589-1.263 2.877-2.214 3.915-3.151 4.953-4.265 5.717-5.528 6.204-6.804 6.704-8.192 6.967-9.656 6.967-11.106 6.967-12.495 6.704-13.746 6.204-15.022 5.717-16.135 4.953-17.086 3.915-18.023 2.877-18.762 1.589-19.287 0-19.8-1.563-20.075-3.439-20.075-5.616-20.075-7.768-19.8-9.631-19.287-11.22-18.762-12.808-18.023-14.108-17.086-15.135-16.135-16.16-15.022-16.923-13.746-17.423-12.495-17.924-11.106-18.161-9.656-18.161-8.192-18.161-6.804-17.924-5.528-17.423-4.265-16.923-3.151-16.16-2.214-15.135-1.263-14.108-.525-12.808 0-11.22 .525-9.631 .763-7.768 .763-5.616 .763-3.439 .525-1.563 0 0M-22.727 .325C-22.052 2.052-21.075 3.527-19.837 4.716-18.562 5.929-17.099 6.842-15.359 7.455-13.634 8.08-11.72 8.394-9.656 8.394-7.579 8.394-5.666 8.08-3.939 7.455-2.201 6.842-.7 5.929 .551 4.716 1.776 3.527 2.752 2.052 3.44 .325 4.128-1.413 4.478-3.377 4.478-5.616 4.478-7.83 4.128-9.806 3.44-11.532 2.752-13.271 1.776-14.734 .551-15.935-.7-17.136-2.201-18.036-3.939-18.611-5.666-19.212-7.579-19.5-9.656-19.5-11.72-19.5-13.634-19.212-15.359-18.611-17.099-18.036-18.562-17.136-19.837-15.935-21.075-14.734-22.052-13.271-22.727-11.532-23.427-9.806-23.777-7.83-23.777-5.616-23.777-3.377-23.427-1.413-22.727 .325" fill="#223f82"/>
<path transform="matrix(1,0,0,-1,788.7832,420.24784)" d="M0 0C-.475-.25-1.062-.475-1.763-.675-2.451-.875-3.227-1.038-4.09-1.2-4.94-1.363-5.841-1.438-6.767-1.438-8.755-1.438-10.568-1.15-12.258-.55-13.945 .025-15.396 .926-16.61 2.127-17.849 3.327-18.799 4.791-19.486 6.529-20.175 8.256-20.513 10.231-20.513 12.458-20.513 14.672-20.175 16.648-19.486 18.387-18.799 20.113-17.836 21.589-16.572 22.777-15.347 23.99-13.846 24.903-12.119 25.517-10.381 26.142-8.467 26.455-6.366 26.455-4.74 26.455-3.227 26.292-1.826 25.93-.462 25.579 .751 25.166 1.802 24.653 1.602 24.291 1.439 23.803 1.314 23.178 1.176 22.552 1.089 22.026 1.001 21.614L.776 21.526C.525 21.852 .176 22.202-.274 22.59-.725 22.99-1.25 23.365-1.851 23.715-2.463 24.091-3.139 24.391-3.89 24.641-4.64 24.891-5.49 25.028-6.366 25.028-7.879 25.028-9.256 24.766-10.519 24.266-11.782 23.778-12.896 23.015-13.82 21.977-14.771 20.938-15.497 19.65-16.035 18.062-16.572 16.498-16.835 14.622-16.835 12.458-16.835 10.294-16.572 8.431-16.035 6.842-15.497 5.254-14.771 3.953-13.82 2.927-12.896 1.901-11.782 1.139-10.519 .639-9.256 .138-7.879-.1-6.366-.1-5.49-.1-4.64 0-3.877 .25-3.102 .488-2.4 .764-1.763 1.088-1.112 1.414-.55 1.764-.012 2.139 .488 2.515 .914 2.852 1.264 3.14L1.427 2.978 1.089 .676C.852 .463 .501 .25 0 0" fill="#223f82"/>
<path transform="matrix(1,0,0,-1,0,595.28)" d="M787.295 209.579H55.95697V212.30699H787.295Z" fill="#b6952f"/>
</g>
</g>
</svg>
